<?xml version="1.0" encoding="iso-8859-1"?>
<!-- Generator: Adobe Illustrator 19.1.0, SVG Export Plug-In . SVG Version: 6.00 Build 0)  -->
<svg xmlns="http://www.w3.org/2000/svg" xmlns:xlink="http://www.w3.org/1999/xlink" version="1.1" id="Capa_1" x="0px" y="0px" viewBox="0 0 165.17 165.17" style="enable-background:new 0 0 165.17 165.17;" xml:space="preserve" width="512px" height="512px">
<g id="XMLID_139_">
	<path id="XMLID_521_" d="M61.578,165.158c-11,0-22,0.033-32.999-0.011   c-8.119-0.032-11.778-5.903-8.212-13.153c0.99-2.012,2.135-3.954,3.31-5.867c1.76-2.868,4.431-4.137,7.749-4.126   c2.838,0.01,5.678-0.004,8.515,0.064c1.951,0.047,3.027-0.306,1.95-2.606c-3.215-6.868-2.487-13.627,0.075-20.622   c6.381-17.425,12.39-34.985,18.611-52.469c5.915-16.623,24.77-22.091,38.331-10.941c6.374,5.241,8.727,12.414,8.112,20.611   c-0.156,2.084-1.527,2.755-3.175,3.28c-4.845,1.541-9.696,3.065-14.531,4.637c-7.332,2.383-11.874,8.459-11.207,14.932   c0.769,7.453,5.776,12.404,13.779,13.292c2.352,0.261,3.036,1.031,1.919,3.092c-1.384,2.554-0.771,4.604,1.027,6.774   c4.373,5.28,8.652,10.644,12.786,16.113c4.246,5.616,4.747,11.78,1.543,18.014c-3,5.839-7.895,8.965-14.584,8.971   c-10.999,0.01-21.999,0.003-32.998,0.003C61.578,165.15,61.578,165.154,61.578,165.158z" fill="#f4511e"/>
	<path id="XMLID_503_" d="M87.583,24.989C87.559,11.084,98.185,0.058,111.665,0   c14.595-0.062,25.922,10.871,25.797,24.901c-0.122,13.65-11.325,24.929-24.834,25.001C98.707,49.977,87.607,38.936,87.583,24.989z" fill="#f4511e"/>
	<path id="XMLID_496_" d="M92.66,108.188c-5.384-0.081-9.246-3.436-10.315-8.395   c-0.933-4.33,1.538-9.309,5.796-11.032c3.28-1.328,6.711-2.288,10.091-3.361c11.606-3.686,23.199-7.418,34.841-10.989   c4.82-1.478,9.079,0.179,11.458,4.031c2.507,4.061,2.105,9.003-0.991,12.512c-1.386,1.571-3.195,2.422-5.124,3.038   c-14.191,4.53-28.386,9.049-42.59,13.538C94.598,107.917,93.294,108.06,92.66,108.188z" fill="#f4511e"/>
</g>
<g>
</g>
<g>
</g>
<g>
</g>
<g>
</g>
<g>
</g>
<g>
</g>
<g>
</g>
<g>
</g>
<g>
</g>
<g>
</g>
<g>
</g>
<g>
</g>
<g>
</g>
<g>
</g>
<g>
</g>
</svg>
