<?xml version="1.0" encoding="iso-8859-1"?>
<!-- Generator: Adobe Illustrator 19.0.0, SVG Export Plug-In . SVG Version: 6.00 Build 0)  -->
<svg xmlns="http://www.w3.org/2000/svg" xmlns:xlink="http://www.w3.org/1999/xlink" version="1.1" id="Layer_1" x="0px" y="0px" viewBox="0 0 512.009 512.009" style="enable-background:new 0 0 512.009 512.009;" xml:space="preserve" width="512px" height="512px">
<g>
	<g>
		<g>
			<path d="M221.342,185.617l-34.133,2.133c-4.71,0.299-8.286,4.343-7.987,9.045c0.282,4.523,4.036,8.004,8.508,8.004     c0.179,0,0.358,0,0.538-0.017l8.004-0.495v0.512c0,4.71,3.823,8.533,8.533,8.533c4.71,0,8.533-3.823,8.533-8.533v-1.587     l9.071-0.563c4.702-0.299,8.277-4.343,7.979-9.045C230.089,188.902,226.155,185.344,221.342,185.617z" fill="#f4511e"/>
			<path d="M273.071,307.2h-34.133c-4.71,0-8.533,3.823-8.533,8.533s3.823,8.533,8.533,8.533h34.133     c4.719,0,8.533-3.823,8.533-8.533S277.79,307.2,273.071,307.2z" fill="#f4511e"/>
			<path d="M102.66,254.703c4.002-2.5,5.214-7.765,2.714-11.759c-0.196-0.316-20.036-32.614-20.036-80.845     c0-79.676,59.008-129.783,170.667-144.956c22.451,3.046,42.667,7.569,60.809,13.406     C196.919,55.902,132.698,136.141,129.822,139.802c-2.91,3.703-2.261,9.071,1.451,11.981c1.562,1.229,3.413,1.818,5.265,1.818     c2.526,0,5.035-1.118,6.716-3.268c0.717-0.913,72.849-91.153,204.186-107.691c52.105,25.139,79.232,65.417,79.232,119.262     c0,48.128-19.84,80.734-20.045,81.058c-2.492,3.994-1.271,9.25,2.722,11.742c1.408,0.879,2.97,1.297,4.514,1.297     c2.842,0,5.623-1.425,7.245-4.011c0.922-1.476,22.63-36.821,22.63-90.086c0-119.159-116.915-152.533-186.607-161.826     c-0.751-0.102-1.502-0.102-2.253,0C185.186,9.37,68.271,42.769,68.271,162.099c0,53.069,21.709,88.414,22.63,89.89     C93.402,255.991,98.684,257.203,102.66,254.703z" fill="#f4511e"/>
			<path d="M392.981,156.297c1.186,3.575,4.514,5.837,8.09,5.837c0.896,0,1.801-0.137,2.697-0.435     c4.471-1.493,6.886-6.323,5.393-10.795c-10.846-32.572-36.949-52.139-56.96-62.874c5.282-0.973,10.59-1.937,16.068-2.799     c4.651-0.734,7.834-5.103,7.091-9.762c-0.725-4.659-5.094-7.842-9.754-7.1c-38.033,6.007-71.902,14.933-101.436,25.395     c-0.922,0.162-1.809,0.486-2.62,0.939c-92.902,33.485-142.08,82.057-142.08,101.564l0.017,34.697     c8.269,123.947,33.246,195.703,136.516,195.703c78.199,0,125.602-32.017,136.533-196.267v-34.133     c0-19.371-29.269-70.758-97.212-94.746c8.977-2.645,18.475-5.111,28.288-7.441C332.693,97.092,378.978,114.304,392.981,156.297z      M256.004,409.6c-63.121,0-94.737-26.317-109.978-101.35c19.994,13.013,45.679,23.381,47.07,23.945     c2.355,0.93,5.001,0.777,7.228-0.427c2.227-1.203,3.806-3.337,4.318-5.82c1.877-9.293,10.667-35.814,25.762-35.814h51.2     c15.104,0,23.885,26.522,25.771,35.814c0.503,2.483,2.082,4.617,4.301,5.82c1.271,0.683,2.671,1.032,4.07,1.032     c1.075,0,2.142-0.205,3.157-0.606c1.391-0.563,27.042-10.923,47.027-23.919C350.665,383.343,319.049,409.6,256.004,409.6z      M375.471,196.267l0.017,33.57c-1.323,19.874-3.089,37.726-5.367,53.811c-0.213,0.179-0.486,0.256-0.683,0.452     c-11.136,11.136-35.081,22.699-48.068,28.476c-4.762-14.498-16.384-39.509-39.765-39.509h-51.2     c-23.381,0-34.995,25.011-39.765,39.509c-12.988-5.777-36.932-17.34-48.068-28.476c-0.213-0.213-0.495-0.299-0.725-0.478     c-2.253-15.932-3.994-33.587-5.308-53.222l-0.008-33.954c1.135-8.542,41.19-53.163,129.869-85.41     C346.995,128.606,375.471,185.284,375.471,196.267z" fill="#f4511e"/>
			<path d="M511.748,501.393l-8.721-34.756c-10.701-32.102-28.023-56.687-142.251-56.687c-2.321,0-4.71,0.009-6.716,1.195     c-1.169,0.691-19.072,11.554-36.608,35.081c-33.886,17.852-66.091,49.818-67.482,51.208c-3.337,3.337-3.337,8.73,0,12.066     c1.664,1.664,3.849,2.5,6.033,2.5c2.185,0,4.369-0.836,6.033-2.5c0.23-0.23,16.179-16.06,36.719-31.181     c-3.106,7.006-5.939,14.575-8.294,22.801c-1.289,4.531,1.331,9.259,5.871,10.547c0.777,0.23,1.562,0.341,2.347,0.341     c3.712,0,7.125-2.449,8.201-6.195c5.555-19.465,14.046-35.021,22.741-47.112c1.246-1.033,2.261-2.27,2.748-3.746     c12.143-15.838,24.132-24.883,28.578-27.938c110.882,0.026,118.869,23.91,125.713,44.39l8.533,34.133     c1.143,4.565,5.786,7.356,10.342,6.204C510.11,510.601,512.892,505.975,511.748,501.393z" fill="#f4511e"/>
			<path d="M289.609,202.65l9.062,0.563v1.587c0,4.71,3.814,8.533,8.533,8.533s8.533-3.823,8.533-8.533v-0.512l8.004,0.495     c0.179,0.017,0.35,0.017,0.538,0.017c4.463,0,8.226-3.482,8.508-8.004c0.29-4.702-3.285-8.747-7.979-9.045l-34.142-2.133     c-4.693-0.307-8.755,3.277-9.045,7.987C281.331,198.306,284.907,202.351,289.609,202.65z" fill="#f4511e"/>
			<path d="M380.207,436.634c-3.942-2.628-9.225-1.553-11.836,2.364c-18.295,27.435-18.5,62.967-18.5,64.469     c0,4.71,3.814,8.533,8.533,8.533s8.533-3.823,8.533-8.533c0-0.316,0.179-31.812,15.633-54.997     C385.19,444.544,384.132,439.245,380.207,436.634z" fill="#f4511e"/>
			<path d="M119.471,409.6c-75.614,0-101.82,31.019-110.677,57.66L0.26,501.393c-1.143,4.582,1.638,9.207,6.204,10.351     c0.7,0.179,1.391,0.256,2.082,0.256c3.823,0,7.296-2.586,8.269-6.46l8.354-33.51c10.035-30.097,41.762-45.363,94.302-45.363     c40.183,0,79.881,24.568,103.62,64.128c2.423,4.036,7.663,5.35,11.708,2.918c4.036-2.423,5.35-7.663,2.918-11.708     C210.923,437.35,165.611,409.6,119.471,409.6z" fill="#f4511e"/>
		</g>
	</g>
</g>
<g>
</g>
<g>
</g>
<g>
</g>
<g>
</g>
<g>
</g>
<g>
</g>
<g>
</g>
<g>
</g>
<g>
</g>
<g>
</g>
<g>
</g>
<g>
</g>
<g>
</g>
<g>
</g>
<g>
</g>
</svg>
