<?xml version="1.0" encoding="iso-8859-1"?>
<!-- Generator: Adobe Illustrator 19.0.0, SVG Export Plug-In . SVG Version: 6.00 Build 0)  -->
<svg xmlns="http://www.w3.org/2000/svg" xmlns:xlink="http://www.w3.org/1999/xlink" version="1.1" id="Capa_1" x="0px" y="0px" viewBox="0 0 229.82 229.82" style="enable-background:new 0 0 229.82 229.82;" xml:space="preserve" width="512px" height="512px">
<path d="M202.852,90.755l-18.889-26.36c-3.434-4.784-10.735-8.575-16.622-8.575h-7.204c8.669-5,14.467-14.811,14.467-25.694  C174.605,13.502,161.081,0,144.457,0c-16.623,0-30.147,13.491-30.147,30.115c0,10.884,5.798,20.705,14.467,25.705h-4.382  c-6.758,0-17.79,9.02-17.79,9.02c-1.18,0.722-2.712,1.126-4.314,1.126c-2.409,0-4.73-0.864-6.21-2.317l-9.795-9.613  c1.698-1.267,2.823-3.127,3.259-5.278c3.402-2.241,5.592-6.099,5.592-10.327v-1.687c0-4.229-2.191-7.875-5.593-10.116  c-0.812-4.001-4.249-6.809-8.487-6.809H69.534c-2.313,0-4.413,0.693-5.981,2.162c-2.252-0.447-4.397-1.06-6.247-1.631  C39.293,14.797,34.813,9.483,34.81,9.483c-1.8-2.401-3.766-3.646-5.691-3.646c-0.818,0-4.982,0.317-4.982,7.096v49.309  c0,6.78,4.165,7.124,4.985,7.124c1.925,0,3.853-1.217,5.612-3.563c0.043-0.053,4.54-5.308,22.553-10.872  c1.849-0.571,3.795-1.078,6.045-1.525c0.596,0.559,0.804,1.036,1.804,1.412v23.636c0,3.224,3.039,5.367,6.263,5.367h7.793  c3.055,0,5.566-2.117,5.82-5.108l6.746,7.157c2.44,2.546,5.983,4.066,9.72,4.066c2.824,0,5.3-0.789,7.477-2.339l4.181-3.065v51.344  c0,4.789,3.27,8.858,7.567,10.329l0.18,64.598c0.016,10.432,8.598,19.019,19.03,19.019h9.14c10.432,0,18.927-8.588,18.938-19.02  l0.061-64.55c3.045-1.045,5.481-3.422,6.643-6.411c5.326-0.562,11.412-4.241,14.373-8.831l14.236-22.082  C206.643,103.747,206.446,95.762,202.852,90.755z M175.136,87.872l6.626,8.712c2.186,2.941,2.168,8.146,0.05,11.136l-6.676,9.314  V87.872z M79.192,81.375L79.192,81.375L79.192,81.375L79.192,81.375z" fill="#D80027"/>
<g>
</g>
<g>
</g>
<g>
</g>
<g>
</g>
<g>
</g>
<g>
</g>
<g>
</g>
<g>
</g>
<g>
</g>
<g>
</g>
<g>
</g>
<g>
</g>
<g>
</g>
<g>
</g>
<g>
</g>
</svg>
