<?xml version="1.0" encoding="iso-8859-1"?>
<!-- Generator: Adobe Illustrator 19.1.0, SVG Export Plug-In . SVG Version: 6.00 Build 0)  -->
<svg xmlns="http://www.w3.org/2000/svg" xmlns:xlink="http://www.w3.org/1999/xlink" version="1.1" id="Capa_1" x="0px" y="0px" viewBox="0 0 153.537 153.537" style="enable-background:new 0 0 153.537 153.537;" xml:space="preserve" width="512px" height="512px">
<g id="XMLID_88_">
	<g id="XMLID_91_">
		<path id="XMLID_1000_" d="M76.184,139.24c-6.83-0.001-13.661,0.034-20.491-0.013    c-4.502-0.031-5.886-1.358-5.904-5.877c-0.055-13.25-0.084-26.502,0.029-39.751c0.024-2.786-0.725-4.853-2.682-6.911    c-7.122-7.487-7.67-14.591-2.125-23.292c3.58-5.616,8.536-9.881,13.637-14.03c1.35-1.098,2.215-0.679,3.57,0.031    c9.615,5.031,19.306,5.323,28.867-0.145c1.25-0.715,2.018-0.946,3.208-0.023c5.418,4.199,10.63,8.598,14.419,14.409    c5.301,8.131,4.771,15.432-2.258,22.139c-2.976,2.84-3.907,5.693-3.837,9.641c0.222,12.564,0.098,25.134,0.075,37.702    c-0.008,4.767-1.304,6.086-6.018,6.113C89.845,139.27,83.014,139.241,76.184,139.24z" fill="#f4511e"/>
		<path id="XMLID_971_" d="M100.228,24.217c-0.489,10.11-4.968,17.754-14.416,21.834    c-9.247,3.994-18.002,2.516-25.498-4.149c-7.551-6.715-9.498-15.278-6.936-24.961c0.632-2.389,1.364-3.444,4.481-2.761    c12.393,2.714,24.878,2.807,37.26-0.349c1.973-0.503,2.987-0.094,3.618,1.955C99.587,18.542,100.36,21.266,100.228,24.217z" fill="#f4511e"/>
		<path id="XMLID_960_" d="M79.236,12.221c-6.524,0.234-13.022-0.164-19.479-1.163    c-0.89-0.138-2.092-0.271-2.369-1.218c-0.292-1,0.782-1.648,1.403-2.335C67.85-2.52,84.62-2.458,93.788,7.428    c2.283,2.462,0.957,3.091-1.191,3.493C88.193,11.744,83.738,12.227,79.236,12.221z" fill="#f4511e"/>
		<path id="XMLID_949_" d="M88.34,153.483c0.117,0.005-0.97-0.014-2.052-0.103    c-1.59-0.132-3.577,0.201-4.292-1.608c-0.752-1.905,0.207-3.717,1.412-5.263c2.561-3.287,7.024-4.071,10.568-1.838    c2.479,1.561,4.156,3.921,3.55,6.773c-0.611,2.876-3.58,1.593-5.543,2.011C91.203,153.622,90.358,153.483,88.34,153.483z" fill="#f4511e"/>
		<path id="XMLID_948_" d="M63.707,153.429c-0.957,0-1.926,0.097-2.868-0.021    c-1.808-0.225-4.258,0.459-4.941-1.885c-0.654-2.247,0.592-4.257,2.244-5.851c2.823-2.723,6.962-3.062,10.147-0.794    c2.264,1.612,3.777,3.87,3.113,6.64c-0.655,2.733-3.385,1.542-5.239,1.924c-0.787,0.162-1.635,0.027-2.456,0.027    C63.707,153.456,63.707,153.442,63.707,153.429z" fill="#f4511e"/>
	</g>
</g>
<g>
</g>
<g>
</g>
<g>
</g>
<g>
</g>
<g>
</g>
<g>
</g>
<g>
</g>
<g>
</g>
<g>
</g>
<g>
</g>
<g>
</g>
<g>
</g>
<g>
</g>
<g>
</g>
<g>
</g>
</svg>
